<?xml version="1.0" encoding="UTF-8" ?>
<svg version="1.1" width="512" height="512" xmlns="http://www.w3.org/2000/svg" shape-rendering="crispEdges">
<rect x="0" y="0" width="512" height="144" fill="#FFFFFF" />
<rect x="0" y="144" width="48" height="368" fill="#FFFFFF" />
<rect x="48" y="144" width="64" height="32" fill="#000000" />
<rect x="112" y="144" width="288" height="32" fill="#FFFFFF" />
<rect x="400" y="144" width="64" height="32" fill="#000000" />
<rect x="464" y="144" width="48" height="368" fill="#FFFFFF" />
<rect x="48" y="176" width="32" height="192" fill="#000000" />
<rect x="80" y="176" width="64" height="160" fill="#FFFFFF" />
<rect x="144" y="176" width="192" height="32" fill="#000000" />
<rect x="336" y="176" width="96" height="32" fill="#FFFFFF" />
<rect x="432" y="176" width="32" height="192" fill="#000000" />
<rect x="144" y="208" width="32" height="128" fill="#000000" />
<rect x="176" y="208" width="64" height="304" fill="#FFFFFF" />
<rect x="240" y="208" width="32" height="128" fill="#000000" />
<rect x="272" y="208" width="64" height="304" fill="#FFFFFF" />
<rect x="336" y="208" width="32" height="128" fill="#000000" />
<rect x="368" y="208" width="64" height="128" fill="#FFFFFF" />
<rect x="80" y="336" width="32" height="32" fill="#000000" />
<rect x="112" y="336" width="64" height="176" fill="#FFFFFF" />
<rect x="240" y="336" width="32" height="176" fill="#FFFFFF" />
<rect x="336" y="336" width="64" height="176" fill="#FFFFFF" />
<rect x="400" y="336" width="32" height="32" fill="#000000" />
<rect x="48" y="368" width="64" height="144" fill="#FFFFFF" />
<rect x="400" y="368" width="64" height="144" fill="#FFFFFF" />
</svg>